<svg xmlns="http://www.w3.org/2000/svg" viewBox="0 0 64 48" xmlns:v="https://vecta.io/nano"><path d="M35.5 0H4.4C2 0 0 2 0 4.4v33.1c0 2.4 2 4.4 4.4 4.4h5c.8 4.1 4.7 6.8 8.7 6 3.1-.6 5.4-3 6-6h11.4c2.4 0 4.4-2 4.4-4.4V4.4c0-2.4-2-4.4-4.4-4.4zM16.7 45.6c-2.8 0-5.1-2.3-5-5.1s2.3-5.1 5.1-5c2.8 0 5 2.3 5.1 5.1-.1 2.7-2.4 5-5.2 5zm37.1-35.5H42v31.7h.4c.8 4.1 4.7 6.7 8.8 6 3-.6 5.3-2.9 5.9-5.8H60c3-.5 4-3.9 4-3.9v-15l-10.2-13zm-4 35.5c-2.8 0-5.1-2.3-5.1-5.1s2.3-5.1 5.1-5.1 5.1 2.3 5.1 5.1-2.3 5.1-5.1 5.1h0zM61 24.8c0 .7-.5 1.2-1.2 1.2H48.5c-.3 0-.7-.1-.9-.4l-1.2-1.3c-.2-.2-.3-.5-.3-.9v-5c0-.3.1-.6.3-.9l1.3-1.4c.2-.2.6-.4.9-.4H54c.4 0 .8.2 1 .5l5.8 7.2c.2.2.3.5.3.8l-.1.6z" fill="#da251c"/><path d="M2.7 16.5h4.5l.9 6.7h0l1-6.7h4.4v11h-2.9v-8h0l-1.4 8H7l-1.4-8h0v8H2.7v-11zm12 0h6.6V19h-3.5v1.7h3.3v2.4h-3.3V25h3.7v2.5h-6.8v-11z" enable-background="new" fill="#fff"/><path d="M21.8 16.5H29v2.6h-2.1v8.4h-3.1v-8.4h-2.1v-2.6zm11.8 9.4h-2.1l-.3 1.7H28l2.6-11h3.9l2.6 11h-3.2l-.3-1.7zm-1-7h0l-.7 4.5h1.4l-.7-4.5z" enable-background="new" fill="#fff"/></svg>